<svg version="1.2" xmlns="http://www.w3.org/2000/svg" viewBox="0 0 1552 825" width="1552" height="825">
	<title>601577</title>
	<style>
		.s0 { fill: #ef2d19 } 
		.s1 { fill: #9b9c9f } 
	</style>
	<path class="s0" d="m551.2 414.5c0-144.1 116.8-260.9 260.7-260.9 85.8 0 161.9 41.3 209.3 105l-98.9 74.5c-25-33.9-65.1-55.1-110.4-55.8-74-1-137 61.5-137 137.2 0 75.7 61.3 136.9 137 136.9 47.7 0 89.5-24.1 114.1-60.7l98.9 74.2c-47.2 66.9-124.9 110.4-213 110.4-143.9 0-260.7-116.8-260.7-260.8z"/>
	<path fill-rule="evenodd" class="s1" d="m419.4 522.6v1.5c0 90.2-73.1 135.2-184.3 135.2h-234.4v-492.6h228.8c100.6 0 162.6 50.1 162.6 127.3 0 57-29.6 88-65 107.7 57.1 21.9 92.3 54.8 92.3 120.9zm-313.1-156.8h99.8c48 0 78.2-15.5 78.2-52.1 0-33.7-25.3-51.9-71.1-51.9h-106.9zm205.3 144.8c0-34.4-24.6-54.8-80.2-54.8h-125.1v108.4h128.8c47.8 0 76.5-17 76.5-53.6zm1240.4 3c0 97.8-74.5 152.6-181 152.6-74.6 0-149.8-26-209.1-78.9l64.2-76.7c44.3 36.6 90.8 60 147.1 60 44.3 0 71.1-17.7 71.1-46.5 0-29-17-43-99.2-64.1-99.3-25.4-163.3-52.6-163.3-150.5 0-90.9 71.9-149.9 172.4-149.9 71.9 0 133.1 22.6 183 62.6l-56.3 81.7c-43.5-30.3-86.6-48.7-128.1-48.7-41.6 0-63.2 19.2-63.2 43 0 33.7 20.9 44.3 106.2 66.1 99.9 26.1 156.2 62 156.2 147.8z"/>
	<path fill-rule="evenodd" class="s0" d="m788.1 46.5c122.9 0 233.1 54.3 307.9 140.6 24.3 24.3 52.6-8.1 37.4-27.1-83.4-97.6-207.1-159.3-345.3-159.3-138.3 0-262 61.7-345.1 159.3-15.5 19 12.8 51.4 37.1 27.1 74.8-86.3 185-140.6 308-140.6zm0 732.5c-123 0-233.2-54.3-308-140.6-24.3-24.3-52.6 8.1-37.1 27.1 83.1 97.6 206.8 159.3 345.1 159.3 138.2 0 261.9-61.7 345.3-159.3 15.2-19-13.1-51.4-37.4-27.1-74.8 86.3-185 140.6-307.9 140.6z"/>
</svg>