<svg version="1.2" xmlns="http://www.w3.org/2000/svg" viewBox="0 0 1550 1550" width="1550" height="1550"><defs><linearGradient id="P" gradientUnits="userSpaceOnUse"/><linearGradient id="g1" x2="1" href="#P" gradientTransform="matrix(648.708,873.504,-870.658,646.595,-1628.302,1981.355)"><stop stop-color="#fff"/><stop offset=".7" stop-color="#a5a8ac"/><stop offset=".86" stop-color="#dcddde"/><stop offset="1" stop-color="#dcddde"/></linearGradient></defs><style>.a{fill:#154faa}.b{fill:url(#g1)}</style><path fill-rule="evenodd" class="a" d="m1455 1537.8c42.7-2 80.2-37.5 82.2-82.6q24.1-680 0-1360.4c-2-43.1-39.5-80.2-82.2-82.2q-680.4-24.4-1360.4 0c-43.1 2-80.6 39.1-82.2 82.2q-24.5 680.4 0 1360.4c1.6 45.1 39.1 80.6 82.2 82.6q680 24.1 1360.4 0z"/><path class="b" d="m176.3 760.6q581.3-147.7 1177.2 0c-196.2-196.3-394.1-392.5-588.8-590.4zm882.3 0l-58.1 3.6c-283.9 9.4-469.1 50.5-342 140.2 153.2 106.6-106.2 168.2-154.8 183.2l261.4 263.4 588.5-590.4z"/></svg>