<svg version="1.2" xmlns="http://www.w3.org/2000/svg" viewBox="0 0 1552 986" width="1552" height="986"><style>.a{fill:#004684}</style><path fill-rule="evenodd" class="a" d="m775.7 985.7c-428.1 0-775-222.6-775-497.4 0-204.9 193.7-381.3 470.2-457.1 68.5-19.2 148.2-30.2 233.3-30.2 106.7 0 204.7 17.3 283.2 46.2-32.6-3.4-66.2-5-100.1-5.3-382.5-4-694.2 185.7-696.5 423.5h0.3c-5 180.1 251.9 333.2 573.3 341.9 321.3 8.3 585.9-131.2 590.5-311.6 0-116.3-180.1-210.7-402.4-210.7-148.9 0-278.9 42.2-348.3 105l180.4 104 238.3-137.2 107.7 61.8c18.3 11.6 30.2 28.6 30.2 47.5 0 19.9-12.6 37.5-31.9 48.8l-289.4 166.8c-15.6 8.6-34.6 14-54.9 14-20.2 0-39.2-5.4-54.8-14l-305.1-175.7c-35.2-20.6-57.8-52.5-57.8-88.1 0-15.3 4.3-29.9 11.6-43.2v0.4c79.5-143.2 305.1-246.5 571-246.5 332.3 0 601.5 161.1 601.5 359.7 0 274.8-347 497.4-775.3 497.4z"/></svg>